<?xml version="1.0" encoding="utf-8" ?><svg xmlns="http://www.w3.org/2000/svg" xmlns:xlink="http://www.w3.org/1999/xlink" width="1024" height="1024" viewBox="0 0 1024 1024"><path fill="#001C65" d="M0 0L989.933 0L1024 0L1024 1024L0 1024L0 984.824L0 0Z"/><path fill="#CA651C" d="M989.933 0L1024 0L1024 1024L0 1024L0 984.824C5.95378 984.837 12.7399 984.718 18.6135 984.999C22.6374 984.516 40.0612 985.025 45.0108 985.041L102.57 985.022L301.535 984.935L990.146 984.939L989.973 22.796C990.119 15.3638 989.96 7.46709 989.933 0Z"/><path fill="#F27B25" d="M989.933 0L1024 0L1024 1024L0 1024L0 984.824C5.95378 984.837 12.7399 984.718 18.6135 984.999C6.06445 989.198 0.0175836 976.306 1.64026 1003.56C1.90029 1007.93 0.978726 1014.44 1.94853 1018.47L2.87062 1018.68C3.47155 1020.08 3.23406 1019.41 3.04252 1021.19L1.91853 1021.29L1.8005 1022.2C4.8409 1022.88 23.8588 1022.53 28.5971 1022.51L85.3396 1022.45L285.555 1022.5L776.068 1022.5L938.284 1022.48L992.97 1022.49C1002.03 1022.49 1013.18 1022.82 1022.02 1022.37C1022.82 1020.96 1022.34 95.0299 1022.32 13.304C1015.68 12.51 1012.83 8.48077 1006.86 6.37152C1003.82 5.29517 995.064 5.12995 992.096 6.68105C989.594 9.77356 991.73 20.3233 990.743 25.8112L989.973 22.796C990.119 15.3638 989.96 7.46709 989.933 0Z"/><path fill="#FEFEFE" d="M614.959 213.867L785.081 214.062L559.357 442.954C564.469 446.983 573.507 461.703 575.807 468.139C553.52 489.478 531.5 511.095 509.753 532.985C503.655 539.066 485.953 555.82 481.956 561.772C481.938 562.165 479.086 572.02 478.766 573.15C473.488 567.427 463.32 551.177 459.15 543.944C447.553 556.05 435.156 567.475 424.078 580.096L424.305 756.818C375.216 755.741 326.108 755.815 277.022 757.04L277.379 214.282C296.31 213.486 316.963 214.247 335.947 214.366L424.03 214.45C424.396 237.052 424.084 260.518 424.078 283.188L424.052 412.341C486.789 345.324 550.43 279.16 614.959 213.867Z"/><path fill="#001738" d="M559.357 442.954C564.469 446.983 573.507 461.703 575.807 468.139C553.52 489.478 531.5 511.095 509.753 532.985C503.655 539.066 485.953 555.82 481.956 561.772C481.938 562.165 479.086 572.02 478.766 573.15C473.488 567.427 463.32 551.177 459.15 543.944C491.761 510.19 526.266 476.452 559.357 442.954Z"/><path fill="#FEFEFE" d="M575.807 468.139L580.816 463.536C593.629 479.144 606.317 496.222 618.523 512.323L668.233 577.448L734.227 663.402C758.24 694.297 782.076 725.33 805.731 756.499L626.767 757.385C597.389 714.894 566.928 673.164 535.412 632.234L499.587 585.231C495.348 579.656 485.352 567.152 481.956 561.772C485.953 555.82 503.655 539.066 509.753 532.985C531.5 511.095 553.52 489.478 575.807 468.139Z"/></svg>